<svg width="800" height="500" viewBox="0 0 800 500" fill="none" xmlns="http://www.w3.org/2000/svg">
  <defs>
    <linearGradient id="gold" x1="0" y1="0" x2="1" y2="1"><stop stop-color="#E9CF91"/><stop offset="1" stop-color="#B58A42"/></linearGradient>
    <linearGradient id="chart" x1="0" y1="0" x2="0" y2="1"><stop stop-color="#D6B56F" stop-opacity=".22"/><stop offset="1" stop-color="#D6B56F" stop-opacity="0"/></linearGradient>
    <filter id="shadow" x="-12%" y="-12%" width="124%" height="124%" color-interpolation-filters="sRGB"><feGaussianBlur stdDeviation="16"/></filter>
  </defs>
  <rect width="800" height="500" fill="#09090B"/>
  <circle cx="630" cy="48" r="210" fill="#7C5B2F" fill-opacity=".14" filter="url(#shadow)"/>
  <rect x="22" y="20" width="756" height="460" rx="18" fill="#101115" stroke="#2A2B31"/>
  <path d="M184 21V479" stroke="#292A30"/>
  <rect x="43" y="42" width="27" height="27" rx="8" fill="url(#gold)"/><path d="M50 55.5h13M56.5 49v13" stroke="#111216" stroke-width="1.5" stroke-linecap="round"/>
  <text x="79" y="53" fill="#F4F0E6" font-family="Inter,Arial,sans-serif" font-size="13" font-weight="600">JewelHub</text><text x="79" y="67" fill="#777983" font-family="Inter,Arial,sans-serif" font-size="8">ASSOCIATION PORTAL</text>
  <rect x="38" y="94" width="130" height="32" rx="8" fill="#242329"/><circle cx="54" cy="110" r="4" fill="#D6B56F"/><text x="67" y="113" fill="#F3E7CB" font-family="Inter,Arial,sans-serif" font-size="10">Overview</text>
  <circle cx="54" cy="151" r="4" fill="#777983"/><text x="67" y="154" fill="#9698A0" font-family="Inter,Arial,sans-serif" font-size="10">Marketplace</text><circle cx="54" cy="188" r="4" fill="#777983"/><text x="67" y="191" fill="#9698A0" font-family="Inter,Arial,sans-serif" font-size="10">Notices</text><circle cx="54" cy="225" r="4" fill="#777983"/><text x="67" y="228" fill="#9698A0" font-family="Inter,Arial,sans-serif" font-size="10">Meetings</text><circle cx="54" cy="262" r="4" fill="#777983"/><text x="67" y="265" fill="#9698A0" font-family="Inter,Arial,sans-serif" font-size="10">Directory</text>
  <rect x="40" y="429" width="130" height="31" rx="8" fill="#17181D"/><circle cx="55" cy="444" r="9" fill="#45403A"/><text x="52" y="447" fill="#F2E6CC" font-family="Inter,Arial,sans-serif" font-size="8">JJ</text><text x="70" y="442" fill="#E5E5E8" font-family="Inter,Arial,sans-serif" font-size="9">Jeevan Jacob</text><text x="70" y="453" fill="#777983" font-family="Inter,Arial,sans-serif" font-size="8">Administrator</text>
  <text x="210" y="58" fill="#F5F5F6" font-family="Inter,Arial,sans-serif" font-size="19" font-weight="600">Market overview</text><text x="210" y="77" fill="#858791" font-family="Inter,Arial,sans-serif" font-size="9">Live rates and association updates</text>
  <rect x="680" y="39" width="70" height="28" rx="8" fill="#191A20" stroke="#303139"/><circle cx="696" cy="53" r="4" fill="#58B889"/><text x="706" y="56" fill="#CACBD0" font-family="Inter,Arial,sans-serif" font-size="8">Live rates</text>
  <rect x="208" y="96" width="252" height="105" rx="11" fill="#17181D" stroke="#2C2D34"/><text x="226" y="120" fill="#9698A0" font-family="Inter,Arial,sans-serif" font-size="9">GOLD · 22 CARAT</text><text x="226" y="157" fill="#F4F0E6" font-family="Inter,Arial,sans-serif" font-size="28" font-weight="600">₹7,165</text><text x="226" y="178" fill="#8AC7A7" font-family="Inter,Arial,sans-serif" font-size="9">↗ 0.42% today</text>
  <rect x="475" y="96" width="275" height="105" rx="11" fill="#17181D" stroke="#2C2D34"/><text x="493" y="120" fill="#9698A0" font-family="Inter,Arial,sans-serif" font-size="9">SILVER · PER GRAM</text><text x="493" y="157" fill="#F4F0E6" font-family="Inter,Arial,sans-serif" font-size="28" font-weight="600">₹92.40</text><text x="493" y="178" fill="#8AC7A7" font-family="Inter,Arial,sans-serif" font-size="9">↗ 1.18% today</text>
  <rect x="208" y="218" width="542" height="144" rx="11" fill="#17181D" stroke="#2C2D34"/><text x="226" y="242" fill="#E8E8EA" font-family="Inter,Arial,sans-serif" font-size="11" font-weight="500">Gold rate movement</text><text x="226" y="257" fill="#777983" font-family="Inter,Arial,sans-serif" font-size="8">LAST 7 DAYS</text>
  <path d="M230 330L274 314L317 320L360 285L405 294L450 274L495 286L540 255L585 266L628 245L675 253L726 231V344H230V330Z" fill="url(#chart)"/><path d="M230 330L274 314L317 320L360 285L405 294L450 274L495 286L540 255L585 266L628 245L675 253L726 231" stroke="url(#gold)" stroke-width="2" stroke-linecap="round" stroke-linejoin="round"/>
  <rect x="208" y="379" width="542" height="76" rx="11" fill="#17181D" stroke="#2C2D34"/><circle cx="230" cy="402" r="5" fill="#D6B56F"/><text x="244" y="405" fill="#E6E6E9" font-family="Inter,Arial,sans-serif" font-size="9" font-weight="500">Association update</text><text x="226" y="426" fill="#92949D" font-family="Inter,Arial,sans-serif" font-size="8">District meeting schedule published for this week</text><text x="226" y="441" fill="#676A74" font-family="Inter,Arial,sans-serif" font-size="7">2 HOURS AGO</text>
</svg>
